# xmcd
#
# Track frame offsets:
#	150
#	25596
#	44908
#	87178
#	112687
#	143142
#	160630
#
# Disc length: 2381 seconds
#
# Revision: 0
# Processed by: cddbd v1.5.2PL0 Copyright (c) Steve Scherf et al.
# Submitted via: EasyCDDAExtractor 16.0.6.1
#
DISCID=4c094b07
DTITLE=Άνευ ερμηνευτού - Χάρης Λεμονόπουλος-The golden fingers of
DYEAR=1990
DGENRE=Οργανικά μπουζούκι σόλο
TTITLE0=Ο χορός του Ζορμπά
TTITLE1=Κλασικό ζεϊμπέκικο
TTITLE2=Selections from gypsy melodies (tsitsornia)
TTITLE3=Ποτέ την Κυριακή
TTITLE4=Ταξίμι καμηλιέρικο-ουσάκ
TTITLE5=Σόλο μπουζούκι Νο 3, part 1
TTITLE6=Σόλο μπουζούκι Νο 3, part 2
EXTD=
EXTT0=
EXTT1=
EXTT2=
EXTT3=
EXTT4=
EXTT5=
EXTT6=
PLAYORDER=
